<svg width="67" height="11" viewBox="0 0 67 11" fill="none" xmlns="http://www.w3.org/2000/svg">
<path d="M6.74197 3.45455L4.36839 10H3.00475L0.626912 3.45455H1.99481L3.65248 8.49148H3.72066L5.37407 3.45455H6.74197ZM10.5378 10.1321C9.89289 10.1321 9.33749 9.99432 8.87159 9.71875C8.40852 9.44034 8.05056 9.04972 7.79772 8.54688C7.54772 8.04119 7.42272 7.44886 7.42272 6.76989C7.42272 6.09943 7.54772 5.50852 7.79772 4.99716C8.05056 4.4858 8.40284 4.08665 8.85454 3.79972C9.30909 3.51278 9.84034 3.36932 10.4483 3.36932C10.8176 3.36932 11.1756 3.4304 11.5222 3.55256C11.8687 3.67472 12.1798 3.86648 12.4554 4.12784C12.731 4.3892 12.9483 4.72869 13.1074 5.14631C13.2665 5.56108 13.346 6.06534 13.346 6.65909V7.1108H8.14289V6.15625H12.0974C12.0974 5.82102 12.0293 5.52415 11.8929 5.26562C11.7565 5.00426 11.5648 4.7983 11.3176 4.64773C11.0733 4.49716 10.7864 4.42188 10.4568 4.42188C10.0989 4.42188 9.78636 4.50994 9.51931 4.68608C9.25511 4.85937 9.05056 5.08665 8.90568 5.3679C8.76363 5.64631 8.69261 5.94886 8.69261 6.27557V7.02131C8.69261 7.45881 8.76931 7.83097 8.92272 8.13778C9.07897 8.4446 9.2963 8.67898 9.57471 8.84091C9.85312 9 10.1784 9.07955 10.5506 9.07955C10.792 9.07955 11.0122 9.04545 11.2111 8.97727C11.4099 8.90625 11.5818 8.80114 11.7267 8.66193C11.8716 8.52273 11.9824 8.35085 12.0591 8.14631L13.2651 8.36364C13.1685 8.71875 12.9952 9.02983 12.7452 9.29688C12.498 9.56108 12.1869 9.76705 11.8119 9.91477C11.4398 10.0597 11.0151 10.1321 10.5378 10.1321ZM14.7597 10V3.45455H15.9913V4.49432H16.0594C16.1788 4.14205 16.389 3.86506 16.6901 3.66335C16.9913 3.45881 17.335 3.35653 17.7214 3.35653C17.9003 3.35653 18.0609 3.37784 18.2029 3.42045C18.345 3.46307 18.47 3.52131 18.5779 3.59517L18.1688 4.66051C18.0921 4.62358 18.0055 4.59375 17.9089 4.57102C17.8123 4.54545 17.7015 4.53267 17.5765 4.53267C17.281 4.53267 17.0168 4.59659 16.7839 4.72443C16.5538 4.84943 16.3705 5.02273 16.2342 5.24432C16.1006 5.46591 16.0339 5.71875 16.0339 6.00284V10H14.7597ZM28.2928 3.45455L25.9192 10H24.5555L22.1777 3.45455H23.5456L25.2033 8.49148H25.2714L26.9249 3.45455H28.2928ZM29.4902 10V3.45455H30.7643V10H29.4902ZM30.1337 2.4446C29.9121 2.4446 29.7217 2.37074 29.5626 2.22301C29.4064 2.07244 29.3283 1.89347 29.3283 1.68608C29.3283 1.47585 29.4064 1.29687 29.5626 1.14915C29.7217 0.998579 29.9121 0.923295 30.1337 0.923295C30.3553 0.923295 30.5442 0.998579 30.7004 1.14915C30.8595 1.29687 30.9391 1.47585 30.9391 1.68608C30.9391 1.89347 30.8595 2.07244 30.7004 2.22301C30.5442 2.37074 30.3553 2.4446 30.1337 2.4446ZM34.9288 10.1278C34.4003 10.1278 33.9288 9.9929 33.514 9.72301C33.1021 9.45028 32.7782 9.0625 32.5424 8.55966C32.3094 8.05398 32.193 7.44744 32.193 6.74006C32.193 6.03267 32.3109 5.42756 32.5467 4.92472C32.7853 4.42187 33.112 4.03693 33.5268 3.76989C33.9415 3.50284 34.4117 3.36932 34.9373 3.36932C35.3435 3.36932 35.6702 3.4375 35.9174 3.57386C36.1674 3.70739 36.3606 3.86364 36.4969 4.04261C36.6361 4.22159 36.7441 4.37926 36.8208 4.51562H36.8975V1.27273H38.1717V10H36.9273V8.98153H36.8208C36.7441 9.12074 36.6333 9.27983 36.4884 9.45881C36.3464 9.63778 36.1503 9.79403 35.9003 9.92756C35.6503 10.0611 35.3265 10.1278 34.9288 10.1278ZM35.21 9.04119C35.5765 9.04119 35.8861 8.9446 36.139 8.75142C36.3947 8.5554 36.5878 8.28409 36.7185 7.9375C36.8521 7.59091 36.9188 7.1875 36.9188 6.72727C36.9188 6.27273 36.8535 5.875 36.7228 5.53409C36.5921 5.19318 36.4003 4.92756 36.1475 4.73722C35.8947 4.54687 35.5822 4.4517 35.21 4.4517C34.8265 4.4517 34.5069 4.55114 34.2512 4.75C33.9955 4.94886 33.8023 5.22017 33.6717 5.56392C33.5438 5.90767 33.4799 6.29545 33.4799 6.72727C33.4799 7.16477 33.5452 7.55824 33.6759 7.90767C33.8066 8.2571 33.9998 8.53409 34.2555 8.73864C34.514 8.94034 34.8322 9.04119 35.21 9.04119ZM42.8112 10.1321C42.1663 10.1321 41.6109 9.99432 41.145 9.71875C40.682 9.44034 40.324 9.04972 40.0712 8.54688C39.8212 8.04119 39.6962 7.44886 39.6962 6.76989C39.6962 6.09943 39.8212 5.50852 40.0712 4.99716C40.324 4.4858 40.6763 4.08665 41.128 3.79972C41.5825 3.51278 42.1138 3.36932 42.7217 3.36932C43.091 3.36932 43.449 3.4304 43.7956 3.55256C44.1422 3.67472 44.4533 3.86648 44.7288 4.12784C45.0044 4.3892 45.2217 4.72869 45.3808 5.14631C45.5399 5.56108 45.6195 6.06534 45.6195 6.65909V7.1108H40.4163V6.15625H44.3709C44.3709 5.82102 44.3027 5.52415 44.1663 5.26562C44.03 5.00426 43.8382 4.7983 43.591 4.64773C43.3467 4.49716 43.0598 4.42188 42.7303 4.42188C42.3723 4.42188 42.0598 4.50994 41.7928 4.68608C41.5285 4.85937 41.324 5.08665 41.1791 5.3679C41.0371 5.64631 40.966 5.94886 40.966 6.27557V7.02131C40.966 7.45881 41.0428 7.83097 41.1962 8.13778C41.3524 8.4446 41.5697 8.67898 41.8481 8.84091C42.1266 9 42.4518 9.07955 42.824 9.07955C43.0655 9.07955 43.2856 9.04545 43.4845 8.97727C43.6834 8.90625 43.8553 8.80114 44.0001 8.66193C44.145 8.52273 44.2558 8.35085 44.3325 8.14631L45.5385 8.36364C45.4419 8.71875 45.2686 9.02983 45.0186 9.29688C44.7714 9.56108 44.4604 9.76705 44.0854 9.91477C43.7132 10.0597 43.2885 10.1321 42.8112 10.1321ZM49.7903 10.1321C49.1766 10.1321 48.6411 9.99148 48.1837 9.71023C47.7263 9.42898 47.3712 9.03551 47.1184 8.52983C46.8655 8.02415 46.7391 7.43324 46.7391 6.7571C46.7391 6.07812 46.8655 5.48437 47.1184 4.97585C47.3712 4.46733 47.7263 4.07244 48.1837 3.79119C48.6411 3.50994 49.1766 3.36932 49.7903 3.36932C50.4039 3.36932 50.9394 3.50994 51.3968 3.79119C51.8542 4.07244 52.2093 4.46733 52.4621 4.97585C52.715 5.48437 52.8414 6.07812 52.8414 6.7571C52.8414 7.43324 52.715 8.02415 52.4621 8.52983C52.2093 9.03551 51.8542 9.42898 51.3968 9.71023C50.9394 9.99148 50.4039 10.1321 49.7903 10.1321ZM49.7945 9.0625C50.1923 9.0625 50.5218 8.95739 50.7832 8.74716C51.0445 8.53693 51.2377 8.2571 51.3627 7.90767C51.4905 7.55824 51.5545 7.1733 51.5545 6.75284C51.5545 6.33523 51.4905 5.9517 51.3627 5.60227C51.2377 5.25 51.0445 4.96733 50.7832 4.75426C50.5218 4.54119 50.1923 4.43466 49.7945 4.43466C49.394 4.43466 49.0616 4.54119 48.7974 4.75426C48.536 4.96733 48.3414 5.25 48.2136 5.60227C48.0886 5.9517 48.0261 6.33523 48.0261 6.75284C48.0261 7.1733 48.0886 7.55824 48.2136 7.90767C48.3414 8.2571 48.536 8.53693 48.7974 8.74716C49.0616 8.95739 49.394 9.0625 49.7945 9.0625ZM62.8769 10.1577L62.1099 9.39915L64.7732 6.7358H58.0829V5.62784H64.7732L62.1099 2.96875L62.8769 2.20597L66.8528 6.18182L62.8769 10.1577Z" fill="black"/>
</svg>
